<?xml version="1.0" standalone="no"?>
<!DOCTYPE svg PUBLIC "-//W3C//DTD SVG 20010904//EN"
 "http://www.w3.org/TR/2001/REC-SVG-20010904/DTD/svg10.dtd">
<svg version="1.0" xmlns="http://www.w3.org/2000/svg"
 width="225.000000pt" height="225.000000pt" viewBox="0 0 225.000000 225.000000"
 preserveAspectRatio="xMidYMid meet">
<metadata>
Created by potrace 1.15, written by Peter Selinger 2001-2017
</metadata>
<g transform="translate(0.000000,225.000000) scale(0.100000,-0.100000)"
fill="#000000" stroke="none">
<path d="M1066 2235 c-46 -16 -92 -58 -100 -91 -6 -23 -10 -24 -95 -24 -122 0
-121 1 -121 -154 0 -106 2 -125 18 -139 17 -15 56 -17 359 -17 317 0 341 1
356 18 14 15 17 41 17 139 0 151 -1 153 -122 153 l-86 0 -12 30 c-16 39 -61
77 -108 90 -47 13 -58 12 -106 -5z m122 -111 c30 -34 28 -70 -7 -105 -38 -38
-74 -38 -112 0 -33 33 -37 65 -13 99 33 48 92 50 132 6z"/>
<path d="M365 1931 c-51 -23 -101 -79 -114 -128 -15 -54 -15 -1604 0 -1658 15
-52 82 -119 134 -134 56 -15 1424 -15 1480 0 52 15 119 82 134 134 15 56 15
1604 0 1660 -15 52 -82 119 -134 134 -22 6 -91 11 -152 11 l-113 0 0 -44 0
-44 125 -4 125 -3 32 -33 33 -32 3 -798 c2 -744 1 -799 -15 -832 -37 -73 -6
-70 -781 -70 -743 0 -720 -1 -767 50 -20 22 -20 36 -20 836 l0 814 33 32 32
33 125 3 125 4 0 44 0 44 -122 0 c-97 0 -131 -4 -163 -19z"/>
<path d="M635 1646 c-40 -18 -80 -62 -99 -108 -55 -130 42 -273 183 -272 196
1 272 233 118 358 -33 26 -48 31 -105 33 -42 2 -78 -2 -97 -11z m219 -88 c8
-13 1 -27 -35 -65 -25 -26 -60 -70 -78 -96 -21 -30 -39 -47 -49 -45 -22 4
-114 127 -110 147 2 9 13 17 25 19 16 2 29 -7 49 -37 15 -23 30 -41 34 -41 4
0 20 16 35 36 42 55 96 105 108 101 6 -2 15 -10 21 -19z"/>
<path d="M1073 1474 c-3 -8 -1 -20 4 -25 5 -5 120 -8 284 -7 266 3 274 4 274
23 0 19 -8 20 -278 23 -245 2 -278 0 -284 -14z"/>
<path d="M970 1190 c0 -11 3 -21 8 -21 27 -5 624 -7 641 -2 12 3 21 13 21 24
0 18 -14 19 -335 19 -328 0 -335 0 -335 -20z"/>
<path d="M635 1096 c-71 -35 -115 -105 -115 -184 0 -153 169 -247 302 -169 60
35 89 82 95 155 6 70 -22 130 -80 176 -33 26 -48 31 -105 33 -44 2 -77 -2 -97
-11z m223 -89 c2 -11 -14 -37 -40 -65 -24 -26 -59 -69 -77 -95 -20 -29 -39
-47 -49 -45 -22 4 -114 126 -110 146 2 9 13 18 25 20 16 2 29 -7 49 -37 24
-38 44 -52 44 -33 0 4 27 36 59 70 60 65 92 77 99 39z"/>
<path d="M1073 924 c-3 -8 -1 -20 4 -25 5 -5 120 -8 284 -7 266 3 274 4 274
23 0 19 -8 20 -278 23 -245 2 -278 0 -284 -14z"/>
<path d="M970 640 c0 -14 7 -20 23 -20 105 -3 642 2 645 5 3 2 2 11 -1 20 -6
13 -48 15 -337 15 -323 0 -330 0 -330 -20z"/>
<path d="M613 374 c-3 -8 -1 -20 4 -25 5 -5 208 -8 514 -7 496 3 504 3 504 23
0 20 -8 20 -508 23 -454 2 -508 1 -514 -14z"/>
</g>
</svg>
